<svg width="204" height="204" viewBox="0 0 204 204" fill="none" xmlns="http://www.w3.org/2000/svg">
<path d="M65.0472 55.5003L65.038 55.5H65.0287H64.8251C59.8601 55.5 55.2397 57.2802 51.5723 60.7122C47.7132 64.2415 45.6872 68.9237 45.5073 73.961L45.5003 74.1573L45.5 74.1662V74.1751V129.941C45.5 135.157 47.5114 139.964 51.3475 143.609L51.5515 143.802L51.5607 143.811L51.5705 143.82L51.784 144.003C55.4842 147.174 60.0002 148.812 64.8251 148.812H65.2826H65.3034L65.3242 148.811L65.7801 148.773C69.9118 148.428 74.4915 147 78.168 143.38C80.1563 141.421 81.5088 139.187 82.3959 136.895C82.8472 135.729 82.4974 134.467 81.7201 133.579C80.3408 132.002 79.0635 130.302 77.9022 128.49C77.1524 127.32 75.5871 127.092 74.3494 127.365C73.1272 127.634 71.8262 128.489 71.8101 129.914C71.5887 132.09 70.8856 133.709 69.7477 134.83C68.6094 135.951 66.981 136.628 64.8044 136.812C62.8182 136.808 61.0918 136.172 59.6033 134.9C58.1984 133.561 57.5 131.919 57.5 129.941V74.3805C57.5729 72.3968 58.3113 70.7906 59.716 69.5264L59.7162 69.5265L59.7259 69.5172C61.1414 68.1726 62.8289 67.5021 64.8158 67.5C66.7278 67.5729 68.3437 68.2772 69.6883 69.6217L69.6882 69.6218L69.698 69.6311C71.0341 70.8969 71.7373 72.47 71.81 74.3814C71.816 75.8241 73.1406 76.692 74.3821 76.9692C75.6354 77.2491 77.2217 77.0314 77.9891 75.8676C79.1661 74.0825 80.4731 72.4004 81.9038 70.8376L81.9126 70.828L81.9209 70.8179C82.632 69.9548 82.9439 68.7554 82.5107 67.6495C81.5505 65.1989 80.0644 62.9533 78.0644 61.0281C74.5786 57.5946 70.1238 55.6884 65.2507 55.5079L65.0472 55.5003Z" fill="black" stroke="black"/>
<path d="M140.914 111H140.09H132.675C132.675 101.55 135.971 92.55 142.15 85.8C142.562 85.35 143.798 84.45 145.034 83.1C145.858 82.2 147.094 81.3 147.918 80.4C148.741 79.95 149.153 79.5 149.153 79.05V78.6C149.153 78.15 149.565 78.15 149.565 77.7C149.565 77.25 149.565 77.25 149.565 76.8C149.565 76.35 149.565 76.35 149.565 75.9C149.565 75.45 149.565 75.45 149.153 75C149.153 75 149.153 74.55 149.153 74.1C141.326 63.3 130.203 57 118.256 57L114.137 57C103.837 57 93.9503 61.5 86.535 70.5C79.1196 78.6 75 89.85 75 102C75 106.95 75.8239 112.35 77.0598 116.85C82.4153 134.85 97.246 147 114.137 147H139.678C140.914 147 142.15 147 143.386 146.55C146.682 145.65 149.565 143.85 152.037 141.15C156.569 136.2 157.393 128.55 154.921 122.25C152.449 115.05 147.094 111 140.914 111ZM124.436 111H119.08C114.137 111 110.429 106.5 110.429 100.65V100.2C110.841 91.65 114.96 84.45 121.552 81.3C126.083 79.05 131.027 79.05 135.147 80.4C128.555 88.95 124.436 99.75 124.436 111ZM146.27 134.4C146.27 134.85 146.27 134.85 146.27 134.4C145.034 136.2 143.386 137.1 141.738 137.55C140.914 138 140.09 138 139.678 138H114.137C100.954 138 89.4187 128.55 84.8871 114.15C83.6512 110.1 83.2393 106.05 83.2393 102C83.2393 92.55 86.535 83.1 92.3025 76.35C98.07 69.6 105.897 66 114.137 66H118.256C123.612 66 128.967 67.8 133.499 70.95C128.555 70.05 123.612 70.95 118.256 73.2C108.781 77.7 102.602 88.05 102.19 100.2V101.1C102.19 111.45 109.605 120.45 119.08 120.45H128.555H140.09H140.914C144.622 120.45 146.682 123.15 147.918 125.85C148.741 127.65 148.741 131.7 146.27 134.4Z" fill="#00B5F8"/>
</svg>
