<svg width="204" height="204" viewBox="0 0 204 204" fill="none" xmlns="http://www.w3.org/2000/svg">
<path d="M61.0472 55.5003L61.038 55.5H61.0287H60.8251C55.8601 55.5 51.2397 57.2802 47.5723 60.7122C43.7132 64.2415 41.6872 68.9237 41.5073 73.961L41.5003 74.1573L41.5 74.1662V74.1751V129.941C41.5 135.157 43.5114 139.964 47.3475 143.609L47.5515 143.802L47.5607 143.811L47.5705 143.82L47.784 144.003C51.4842 147.174 56.0002 148.812 60.8251 148.812H61.2826H61.3034L61.3242 148.811L61.3636 148.807C61.5171 148.811 61.671 148.812 61.8251 148.812H62.2826H62.3034L62.3242 148.811L62.7801 148.773C66.9118 148.428 71.4915 147 75.168 143.38C77.1563 141.421 78.5088 139.187 79.3959 136.895C79.8472 135.729 79.4974 134.467 78.7201 133.579C77.3408 132.002 76.0635 130.302 74.9022 128.49C74.2383 127.454 72.9305 127.159 71.8007 127.289C70.9286 127.183 69.9763 127.366 69.2229 127.785C68.4566 128.212 67.8215 128.935 67.8101 129.914C67.5934 132.044 66.915 133.64 65.8197 134.758C64.7294 135.87 63.175 136.559 61.1023 136.784C59.4113 136.647 57.916 136.022 56.6033 134.9C55.1984 133.561 54.5 131.919 54.5 129.941V74.3805C54.5729 72.3968 55.3113 70.7906 56.716 69.5264L56.7162 69.5265L56.7259 69.5172C57.9942 68.3124 59.4783 67.6512 61.1955 67.5231C62.9406 67.6698 64.4321 68.3655 65.6883 69.6217L65.6882 69.6218L65.698 69.6311C67.0341 70.8969 67.7373 72.47 67.81 74.3814C67.8143 75.3786 68.4661 76.1131 69.2488 76.5459C70.016 76.9701 70.9859 77.1562 71.8728 77.0514C73.0075 77.1788 74.3159 76.8886 74.9891 75.8676C76.1661 74.0825 77.4731 72.4004 78.9038 70.8376L78.9126 70.828L78.9209 70.8179C79.632 69.9548 79.9439 68.7554 79.5107 67.6495C78.5505 65.1989 77.0644 62.9533 75.0644 61.0281C71.5786 57.5946 67.1238 55.6884 62.2507 55.5079L62.0472 55.5003L62.038 55.5H62.0287H61.8251C61.6336 55.5 61.4427 55.5026 61.2522 55.5079L61.2507 55.5079L61.2507 55.508L61.2507 55.5079L61.0472 55.5003Z" fill="black" stroke="black"/>
<path d="M149.561 135.28L149.679 135.151L149.561 135.28ZM149.561 135.28L149.462 135.424M149.561 135.28L149.462 135.424M149.462 135.424L151.522 136.84L149.462 135.424ZM157.037 73.86V73.0486L156.561 72.3918C147.988 60.5767 135.653 53.5 122.23 53.5H117.923C106.402 53.5 95.3829 58.5355 87.1743 68.459C78.98 77.4264 74.5 89.7799 74.5 103C74.5 108.418 75.3984 114.282 76.7433 119.173L76.7503 119.198L76.7579 119.224C82.6215 138.909 98.9835 152.5 117.923 152.5H144.63C144.67 152.5 144.711 152.5 144.752 152.5C145.952 152.501 147.583 152.502 149.259 151.916C153.153 150.834 156.539 148.696 159.396 145.579C164.882 139.594 165.758 130.577 162.915 123.286C160.041 114.98 153.626 109.9 145.922 109.9H145.061H139.886C140.414 101.543 143.59 93.7358 149.054 87.7724C149.055 87.7725 149.072 87.7546 149.116 87.7137C149.168 87.6656 149.237 87.6039 149.33 87.5228C149.417 87.4468 149.513 87.3639 149.625 87.2671L149.648 87.2479C149.767 87.145 149.901 87.0298 150.043 86.9059C150.611 86.41 151.336 85.753 152.073 84.9492C152.391 84.6017 152.817 84.2266 153.381 83.7334L153.43 83.6913C153.847 83.3275 154.348 82.8898 154.807 82.4247C155.247 82.1559 155.687 81.8287 156.057 81.4242C156.515 80.9244 156.982 80.1747 157.033 79.2054C157.053 79.1725 157.072 79.1386 157.092 79.1037C157.205 78.8978 157.303 78.6624 157.371 78.3975C157.439 78.1341 157.468 77.8729 157.468 77.62V77.6173V77.6145V77.6118V77.6091V77.6064V77.6037V77.601V77.5983V77.5956V77.593V77.5903V77.5877V77.5851V77.5825V77.5799V77.5773V77.5747V77.5721V77.5696V77.567V77.5645V77.5619V77.5594V77.5569V77.5544V77.5519V77.5494V77.547V77.5445V77.542V77.5396V77.5372V77.5347V77.5323V77.5299V77.5275V77.5251V77.5227V77.5204V77.518V77.5156V77.5133V77.511V77.5086V77.5063V77.504V77.5017V77.4994V77.4971V77.4949V77.4926V77.4904V77.4881V77.4859V77.4836V77.4814V77.4792V77.477V77.4748V77.4726V77.4704V77.4683V77.4661V77.4639V77.4618V77.4597V77.4575V77.4554V77.4533V77.4512V77.4491V77.447V77.4449V77.4428V77.4408V77.4387V77.4366V77.4346V77.4326V77.4305V77.4285V77.4265V77.4245V77.4225V77.4205V77.4185V77.4165V77.4145V77.4126V77.4106V77.4087V77.4067V77.4048V77.4028V77.4009V77.399V77.3971V77.3952V77.3933V77.3914V77.3895V77.3876V77.3858V77.3839V77.382V77.3802V77.3783V77.3765V77.3747V77.3728V77.371V77.3692V77.3674V77.3656V77.3638V77.362V77.3602V77.3584V77.3566V77.3549V77.3531V77.3514V77.3496V77.3479V77.3461V77.3444V77.3427V77.3409V77.3392V77.3375V77.3358V77.3341V77.3324V77.3307V77.329V77.3273V77.3257V77.324V77.3223V77.3207V77.319V77.3173V77.3157V77.3141V77.3124V77.3108V77.3092V77.3075V77.3059V77.3043V77.3027V77.3011V77.2995V77.2979V77.2963V77.2947V77.2931V77.2915V77.29V77.2884V77.2868V77.2852V77.2837V77.2821V77.2806V77.279V77.2775V77.2759V77.2744V77.2729V77.2713V77.2698V77.2683V77.2668V77.2653V77.2637V77.2622V77.2607V77.2592V77.2577V77.2562V77.2547V77.2532V77.2518V77.2503V77.2488V77.2473V77.2458V77.2444V77.2429V77.2414V77.24V77.2385V77.237V77.2356V77.2341V77.2327V77.2312V77.2298V77.2283V77.2269V77.2255V77.224V77.2226V77.2212V77.2197V77.2183V77.2169V77.2154V77.214V77.2126V77.2112V77.2098V77.2083V77.2069V77.2055V77.2041V77.2027V77.2013V77.1999V77.1985V77.1971V77.1957V77.1943V77.1929V77.1915V77.1901V77.1887V77.1873V77.1859V77.1845V77.1831V77.1818V77.1804V77.179V77.1776V77.1762V77.1748V77.1734V77.1721V77.1707V77.1693V77.1679V77.1665V77.1652V77.1638V77.1624V77.161V77.1596V77.1583V77.1569V77.1555V77.1541V77.1528V77.1514V77.15V77.1486V77.1472V77.1459V77.1445V77.1431V77.1417V77.1404V77.139V77.1376V77.1362V77.1348V77.1335V77.1321V77.1307V77.1293V77.1279V77.1266V77.1252V77.1238V77.1224V77.121V77.1196V77.1182V77.1169V77.1155V77.1141V77.1127V77.1113V77.1099V77.1085V77.1071V77.1057V77.1043V77.1029V77.1015V77.1001V77.0987V77.0973V77.0959V77.0945V77.0931V77.0916V77.0902V77.0888V77.0874V77.086V77.0846V77.0831V77.0817V77.0803V77.0788V77.0774V77.076V77.0745V77.0731V77.0717V77.0702V77.0688V77.0673V77.0659V77.0644V77.063V77.0615V77.06V77.0586V77.0571V77.0556V77.0542V77.0527V77.0512V77.0497V77.0482V77.0468V77.0453V77.0438V77.0423V77.0408V77.0393V77.0378V77.0363V77.0347V77.0332V77.0317V77.0302V77.0287V77.0271V77.0256V77.0241V77.0225V77.021V77.0194V77.0179V77.0163V77.0147V77.0132V77.0116V77.01V77.0085V77.0069V77.0053V77.0037V77.0021V77.0005V76.9989V76.9973V76.9957V76.9941V76.9925V76.9908V76.9892V76.9876V76.9859V76.9843V76.9827V76.981V76.9793V76.9777V76.976V76.9743V76.9727V76.971V76.9693V76.9676V76.9659V76.9642V76.9625V76.9608V76.9591V76.9573V76.9556V76.9539V76.9521V76.9504V76.9486V76.9469V76.9451V76.9433V76.9416V76.9398V76.938V76.9362V76.9344V76.9326V76.9308V76.929V76.9272V76.9253V76.9235V76.9217V76.9198V76.918V76.9161V76.9142V76.9124V76.9105V76.9086V76.9067V76.9048V76.9029V76.901V76.8991V76.8972V76.8952V76.8933V76.8913V76.8894V76.8874V76.8855V76.8835V76.8815V76.8795V76.8775V76.8755V76.8735V76.8715V76.8695V76.8674V76.8654V76.8634V76.8613V76.8592V76.8572V76.8551V76.853V76.8509V76.8488V76.8467V76.8446V76.8425V76.8403V76.8382V76.8361V76.8339V76.8317V76.8296V76.8274V76.8252V76.823V76.8208V76.8186V76.8164V76.8141V76.8119V76.8096V76.8074V76.8051V76.8029V76.8006V76.7983V76.796V76.7937V76.7914V76.789V76.7867V76.7844V76.782V76.7796V76.7773V76.7749V76.7725V76.7701V76.7677V76.7653V76.7628V76.7604V76.758V76.7555V76.753V76.7506V76.7481V76.7456V76.7431V76.7406V76.7381V76.7355V76.733V76.7304V76.7279V76.7253V76.7227V76.7201V76.7175V76.7149V76.7123V76.7097V76.707V76.7044V76.7017V76.699V76.6963V76.6936V76.6909V76.6882V76.6855V76.6827V76.68V76.6773V76.6745V76.6718V76.6691V76.6664V76.6637V76.661V76.6583V76.6556V76.653V76.6503V76.6477V76.6451V76.6425V76.6399V76.6373V76.6347V76.6321V76.6296V76.627V76.6245V76.6219V76.6194V76.6169V76.6144V76.6119V76.6094V76.607V76.6045V76.602V76.5996V76.5972V76.5947V76.5923V76.5899V76.5875V76.5851V76.5827V76.5804V76.578V76.5756V76.5733V76.571V76.5686V76.5663V76.564V76.5617V76.5594V76.5571V76.5549V76.5526V76.5504V76.5481V76.5459V76.5436V76.5414V76.5392V76.537V76.5348V76.5326V76.5304V76.5283V76.5261V76.5239V76.5218V76.5197V76.5175V76.5154V76.5133V76.5112V76.5091V76.507V76.5049V76.5028V76.5008V76.4987V76.4966V76.4946V76.4926V76.4905V76.4885V76.4865V76.4845V76.4825V76.4805V76.4785V76.4765V76.4745V76.4726V76.4706V76.4687V76.4667V76.4648V76.4628V76.4609V76.459V76.4571V76.4552V76.4533V76.4514V76.4495V76.4476V76.4458V76.4439V76.442V76.4402V76.4383V76.4365V76.4347V76.4328V76.431V76.4292V76.4274V76.4256V76.4238V76.422V76.4202V76.4184V76.4167V76.4149V76.4131V76.4114V76.4096V76.4079V76.4061V76.4044V76.4027V76.4009V76.3992V76.3975V76.3958V76.3941V76.3924V76.3907V76.389V76.3873V76.3857V76.384V76.3823V76.3807V76.379V76.3773V76.3757V76.3741V76.3724V76.3708V76.3692V76.3675V76.3659V76.3643V76.3627V76.3611V76.3595V76.3579V76.3563V76.3547V76.3531V76.3515V76.35V76.3484V76.3468V76.3452V76.3437V76.3421V76.3406V76.339V76.3375V76.3359V76.3344V76.3329V76.3313V76.3298V76.3283V76.3268V76.3253V76.3237V76.3222V76.3207V76.3192V76.3177V76.3162V76.3147V76.3132V76.3118V76.3103V76.3088V76.3073V76.3058V76.3044V76.3029V76.3014V76.3V76.2985V76.297V76.2956V76.2941V76.2927V76.2912V76.2898V76.2883V76.2869V76.2855V76.284V76.2826V76.2812V76.2797V76.2783V76.2769V76.2754V76.274V76.2726V76.2712V76.2698V76.2684V76.2669V76.2655V76.2641V76.2627V76.2613V76.2599V76.2585V76.2571V76.2557V76.2543V76.2529V76.2515V76.2501V76.2487V76.2473V76.2459V76.2445V76.2431V76.2418V76.2404V76.239V76.2376V76.2362V76.2348V76.2334V76.2321V76.2307V76.2293V76.2279V76.2265V76.2252V76.2238V76.2224V76.221V76.2196V76.2183V76.2169V76.2155V76.2141V76.2128V76.2114V76.21V76.2086V76.2072V76.2059V76.2045V76.2031V76.2017V76.2004V76.199V76.1976V76.1962V76.1948V76.1935V76.1921V76.1907V76.1893V76.1879V76.1866V76.1852V76.1838V76.1824V76.181V76.1796V76.1782V76.1769V76.1755V76.1741V76.1727V76.1713V76.1699V76.1685V76.1671V76.1657V76.1643V76.1629V76.1615V76.1601V76.1587V76.1573V76.1559V76.1545V76.1531V76.1516V76.1502V76.1488V76.1474V76.146V76.1446V76.1431V76.1417V76.1403V76.1388V76.1374V76.136V76.1345V76.1331V76.1317V76.1302V76.1288V76.1273V76.1259V76.1244V76.123V76.1215V76.12V76.1186V76.1171V76.1156V76.1142V76.1127V76.1112V76.1097V76.1082V76.1068V76.1053V76.1038V76.1023V76.1008V76.0993V76.0978V76.0963V76.0947V76.0932V76.0917V76.0902V76.0887V76.0871V76.0856V76.0841V76.0825V76.081V76.0794V76.0779V76.0763V76.0747V76.0732V76.0716V76.07V76.0685V76.0669V76.0653V76.0637V76.0621V76.0605V76.0589V76.0573V76.0557V76.0541V76.0525V76.0508V76.0492V76.0476V76.0459V76.0443V76.0427V76.041V76.0393V76.0377V76.036V76.0343V76.0327V76.031V76.0293V76.0276V76.0259V76.0242V76.0225V76.0208V76.0191V76.0173V76.0156V76.0139V76.0121V76.0104V76.0086V76.0069V76.0051V76.0033V76.0016V75.9998V75.998V75.9962V75.9944V75.9926V75.9908V75.989V75.9872V75.9853V75.9835V75.9817V75.9798V75.978V75.9761V75.9742V75.9724V75.9705V75.9686V75.9667V75.9648V75.9629V75.961V75.9591V75.9572V75.9552V75.9533V75.9513V75.9494V75.9474V75.9455V75.9435V75.9415V75.9395V75.9375V75.9355V75.9335V75.9315V75.9295V75.9274V75.9254V75.9234V75.9213V75.9192V75.9172V75.9151V75.913V75.9109V75.9088V75.9067V75.9046V75.9025V75.9003V75.8982V75.8961V75.8939V75.8917V75.8896V75.8874V75.8852V75.883V75.8808V75.8786V75.8764V75.8741V75.8719V75.8696V75.8674V75.8651V75.8629V75.8606V75.8583V75.856V75.8537V75.8514V75.849V75.8467V75.8443V75.842V75.8396V75.8373V75.8349V75.8325V75.8301V75.8277V75.8253V75.8228V75.8204V75.818V75.8155V75.813V75.8106V75.8081V75.8056V75.8031V75.8006V75.7981V75.7955V75.793V75.7904V75.7879V75.7853V75.7827V75.7801V75.7775V75.7749V75.7723V75.7696V75.767V75.7644V75.7617V75.759V75.7563V75.7536V75.7509V75.7482V75.7455V75.7427V75.74C157.468 75.7336 157.468 75.7262 157.468 75.7179C157.468 75.6278 157.469 75.4277 157.451 75.2328C157.426 74.9588 157.361 74.6089 157.187 74.2285C157.14 74.1248 157.089 74.0295 157.037 73.943V73.9425V73.9398V73.937V73.9343V73.9315V73.9288V73.926V73.9233V73.9205V73.9178V73.9151V73.9123V73.9095V73.9068V73.904V73.9013V73.8985V73.8958V73.893V73.8903V73.8875V73.8848V73.882V73.8793V73.8765V73.8738V73.871V73.8683V73.8655V73.8628V73.86ZM156.573 79.8048C156.573 79.8051 156.579 79.7982 156.593 79.7828C156.581 79.7967 156.574 79.8044 156.573 79.8048ZM126.787 83.6197C129.668 82.191 132.75 81.7643 135.641 82.0719C130.223 90.1697 126.75 99.8049 126.253 109.9H123.092C119.711 109.9 116.546 106.766 116.546 101.59V101.182C116.959 92.9636 120.898 86.4312 126.753 83.6361L126.77 83.628L126.787 83.6197ZM146.126 137.718L145.843 137.795L145.586 137.935L146.784 140.13L146.126 137.718ZM121.263 70.6148L121.21 70.6368L121.159 70.6613L122.23 72.92L121.263 70.6148ZM102.932 101.035L102.93 101.078V101.12H105.43L102.932 101.035Z" fill="#00B5F8" stroke="white" stroke-width="5"/>
</svg>
